<?xml version="1.0" encoding="UTF-8"?>
<svg width="473px" height="404px" viewBox="0 0 473 404" version="1.1" xmlns="http://www.w3.org/2000/svg" xmlns:xlink="http://www.w3.org/1999/xlink">
    <!-- Generator: Sketch 50 (54983) - http://www.bohemiancoding.com/sketch -->
    <title>raj</title>
    <desc>Created with Sketch.</desc>
    <defs>
        <polygon id="path-1" points="149.777451 7.141867 196.093058 92.9432766 236.46587 7.141867 279.929058 92.9432766 319.777451 7.141867 319.777451 147.141867 149.777451 147.141867"></polygon>
        <filter x="-0.3%" y="-0.4%" width="100.6%" height="101.4%" filterUnits="objectBoundingBox" id="filter-2">
            <feOffset dx="0" dy="1" in="SourceAlpha" result="shadowOffsetOuter1"></feOffset>
            <feColorMatrix values="0 0 0 0 0   0 0 0 0 0   0 0 0 0 0  0 0 0 0.0945142663 0" type="matrix" in="shadowOffsetOuter1"></feColorMatrix>
        </filter>
        <path d="M159.607135,269.957093 L171.607135,269.957093 C172.711705,269.957093 173.607135,270.852524 173.607135,271.957093 L173.607135,283.744679 C173.607135,283.863954 173.596465,283.98299 173.575253,284.100364 L167.470814,317.878175 C167.274375,318.965136 166.233973,319.687047 165.147011,319.490608 C164.321461,319.341412 163.676761,318.692855 163.532492,317.866429 L157.636931,284.09463 C157.617104,283.981056 157.607135,283.865981 157.607135,283.75069 L157.607135,271.957093 C157.607135,270.852524 158.502566,269.957093 159.607135,269.957093 Z" id="path-3"></path>
        <filter x="-3.1%" y="-0.8%" width="112.5%" height="101.7%" filterUnits="objectBoundingBox" id="filter-4">
            <feOffset dx="1" dy="0" in="SourceAlpha" result="shadowOffsetOuter1"></feOffset>
            <feColorMatrix values="0 0 0 0 0   0 0 0 0 0   0 0 0 0 0  0 0 0 0.0947690217 0" type="matrix" in="shadowOffsetOuter1"></feColorMatrix>
        </filter>
        <path d="M222.678203,270.047749 L234.678203,270.047749 C235.782773,270.047749 236.678203,270.94318 236.678203,272.047749 L236.678203,283.835335 C236.678203,283.95461 236.667533,284.073646 236.646321,284.19102 L230.541882,317.968831 C230.345443,319.055792 229.305041,319.777703 228.218079,319.581264 C227.392529,319.432068 226.747829,318.783511 226.60356,317.957085 L220.707999,284.185286 C220.688172,284.071712 220.678203,283.956637 220.678203,283.841346 L220.678203,272.047749 C220.678203,270.94318 221.573634,270.047749 222.678203,270.047749 Z" id="path-5"></path>
        <filter x="-3.1%" y="-0.8%" width="112.5%" height="101.7%" filterUnits="objectBoundingBox" id="filter-6">
            <feOffset dx="1" dy="0" in="SourceAlpha" result="shadowOffsetOuter1"></feOffset>
            <feColorMatrix values="0 0 0 0 0   0 0 0 0 0   0 0 0 0 0  0 0 0 0.108695652 0" type="matrix" in="shadowOffsetOuter1"></feColorMatrix>
        </filter>
    </defs>
    <g id="Page-1" stroke="none" stroke-width="1" fill="none" fill-rule="evenodd">
        <g id="raj-logo" transform="translate(-167.000000, -180.000000)">
            <g id="raj" transform="translate(169.000000, 180.000000)">
                <path d="M67.3786573,261.287426 C58.2966971,267.856536 49.6481171,270.246317 42.9322779,267.11467 C34.1781983,263.032576 30.4998883,250.404538 31.7548509,233.685062 C13.385938,227.308574 0.980863497,216.665924 -1.42874413,203.000361 C-6.34850169,175.099029 32.1963681,144.788052 85.5802655,133.746957 C93.4849851,128.835398 100.914962,127.300248 106.840375,130.063313 C107.089621,130.179538 107.334751,130.302691 107.575771,130.432669 C157.122656,125.74373 198.315493,140.823605 202.925319,166.967226 C207.204024,191.232971 178.607153,217.321314 135.965156,230.971057 C135.783592,231.683591 135.597015,232.3975 135.405396,233.112632 C124.597606,273.447855 101.84348,302.396686 84.582633,297.771656 C74.256921,295.00489 68.2361521,280.850069 67.3786573,261.287426 Z" id="Combined-Shape" fill="#D8D8D8"></path>
                <circle id="Oval-2" fill="#E0E0E0" cx="231" cy="230" r="125"></circle>
                <g id="Rectangle-7" transform="translate(234.777451, 77.141867) rotate(5.000000) translate(-234.777451, -77.141867) ">
                    <use fill="black" fill-opacity="1" filter="url(#filter-2)" xlink:href="#path-1"></use>
                    <use fill="#F2E361" fill-rule="evenodd" xlink:href="#path-1"></use>
                </g>
                <path d="M145.17815,215 C145.06052,214.297435 145,213.582337 145,212.857143 C145,202.994915 156.192881,195 170,195 C183.807119,195 195,202.994915 195,212.857143 C195,213.582337 194.93948,214.297435 194.82185,215 C193.339783,206.148086 182.791847,199.285714 170,199.285714 C157.208153,199.285714 146.660217,206.148086 145.17815,215 Z" id="Combined-Shape" fill="#4C4C4C"></path>
                <path d="M212.17815,217 C212.06052,216.297435 212,215.582337 212,214.857143 C212,204.994915 223.192881,197 237,197 C250.807119,197 262,204.994915 262,214.857143 C262,215.582337 261.93948,216.297435 261.82185,217 C260.339783,208.148086 249.791847,201.285714 237,201.285714 C224.208153,201.285714 213.660217,208.148086 212.17815,217 Z" id="Combined-Shape" fill="#4C4C4C"></path>
                <g id="Rectangle-8" transform="translate(165.607135, 299.457093) rotate(30.000000) translate(-165.607135, -299.457093) ">
                    <use fill="black" fill-opacity="1" filter="url(#filter-4)" xlink:href="#path-3"></use>
                    <use fill="#FFFEF3" fill-rule="evenodd" xlink:href="#path-3"></use>
                </g>
                <g id="Rectangle-8" transform="translate(228.678203, 299.547749) scale(-1, 1) rotate(30.000000) translate(-228.678203, -299.547749) ">
                    <use fill="black" fill-opacity="1" filter="url(#filter-6)" xlink:href="#path-5"></use>
                    <use fill="#FFFEF3" fill-rule="evenodd" xlink:href="#path-5"></use>
                </g>
                <path d="M169.467059,277.644228 L172.264624,261.902563 C172.80223,258.877498 173.892856,255.977447 175.481833,253.347773 L182.867295,241.125223 C183.583694,239.93962 184.397393,238.815612 185.299991,237.764804 L191.253223,230.834028 C193.577997,228.127517 196.9682,226.570388 200.536081,226.570388 L200.536081,226.570388 C204.107572,226.570388 207.504906,228.113437 209.854852,230.802917 L215.144492,236.856838 C217.940023,240.056285 219.874033,243.915408 220.763932,248.069868 L224.264301,264.411212 C224.632955,266.132259 224.818828,267.887425 224.818828,269.647513 L224.818828,383.562462 C224.818828,394.849803 215.668631,404 204.38129,404 L194.391848,404 C187.904176,404 181.886356,400.615908 178.516083,395.072339 L175.736666,390.500635 C173.989145,387.62624 172.839694,384.428731 172.357148,381.099598 L166.258551,339.024739 C166.086407,337.8371 166,336.638607 166,335.438557 L166,300.730578 C166,299.369743 166.111112,298.011181 166.332228,296.66843 L169.413607,277.95647 C169.430765,277.852278 169.448582,277.748195 169.467059,277.644228 Z" id="Rectangle-6" fill="#D8D8D8"></path>
                <rect id="Rectangle-9" fill="#E0E0E0" x="144" y="210" width="130" height="15"></rect>
                <path d="M334.63037,266.004798 C325.54841,272.573907 316.89983,274.963689 310.183991,271.832042 C301.429911,267.749948 297.751601,255.12191 299.006564,238.402434 C280.637651,232.025946 268.232576,221.383296 265.822969,207.717732 C260.903211,179.816401 299.448081,149.505424 352.831978,138.464328 C360.736698,133.55277 368.166674,132.01762 374.092088,134.780685 C374.341333,134.89691 374.586464,135.020063 374.827483,135.150041 C424.374369,130.461102 465.567206,145.540976 470.177031,171.684598 C474.455737,195.950343 445.858866,222.038686 403.216869,235.688429 C403.035305,236.400963 402.848728,237.114872 402.657109,237.830004 C391.849318,278.165227 369.095192,307.114058 351.834346,302.489028 C341.508634,299.722262 335.487865,285.567441 334.63037,266.004798 Z" id="Combined-Shape" fill="#D8D8D8" transform="translate(368.000000, 218.000000) scale(-1, 1) translate(-368.000000, -218.000000) "></path>
            </g>
        </g>
    </g>
</svg>